# xmcd
#
# Track frame offsets: 
#        150
#        18857
#        47112
#        66772
#        85367
#
# Disc length: 1427 seconds
#
# Revision: 1
# Processed by: cddbd v1.5.2PL0 Copyright (c) Steve Scherf et al.
# Submitted via: ExactAudioCopy v1.3
#
DISCID=38059105
DTITLE=Nona Reeves - DJ!DJ! 〜とどかぬ想い〜
DYEAR=2000
DGENRE=Rock
TTITLE0=Nona Reeves/YOU THE ROCK★ - DJ!DJ! 〜とどかぬ想い〜
TTITLE1=LOVE TOGETHER (COMPUTER 2000MIX-L)
TTITLE2=STOP ME(ライヴ＠赤坂ブリッツ)
TTITLE3=DJ!DJ! 〜とどかぬ想い〜 (practice)
TTITLE4=LOVE TOGETHER (practice)
EXTD=YEAR: 2000
EXTT0=
EXTT1=
EXTT2=
EXTT3=
EXTT4=
PLAYORDER=
